<svg width="600" height="264" viewBox="0 0 600 264" fill="none" xmlns="http://www.w3.org/2000/svg">
<g clip-path="url(#clip0_3191_1035)">
<path fill-rule="evenodd" clip-rule="evenodd" d="M15.0598 145.062C21.0359 145.062 26.0558 150.05 26.0558 155.987V170H48.0478V133.662C48.0478 127.725 43.0279 122.737 37.0518 122.737H0V145.062H15.0598Z" fill="#F85A00"/>
<path fill-rule="evenodd" clip-rule="evenodd" d="M137.688 100.413L109.242 163.351H124.302L130.039 149.813H159.68L165.417 163.351H180.955L152.27 100.413H137.688ZM134.82 138.888L144.86 114.663L154.9 138.888H134.581H134.82Z" fill="black"/>
<path fill-rule="evenodd" clip-rule="evenodd" d="M228.762 135.326C228.762 141.026 227.567 145.538 225.177 148.151C222.786 150.763 219.201 152.188 214.659 152.188C205.097 152.188 200.555 146.488 200.555 135.326V100.413H185.734V135.801C185.734 145.063 188.364 152.188 193.384 157.176C198.404 162.163 205.575 164.538 214.659 164.538C223.742 164.538 230.914 162.163 235.934 157.176C240.953 152.188 243.583 145.063 243.583 135.801V100.413H229.001V135.088L228.762 135.326Z" fill="black"/>
<path fill-rule="evenodd" clip-rule="evenodd" d="M249.562 112.288H270.12V163.588H284.941V112.288H305.26V100.413H249.562V112.288Z" fill="black"/>
<path fill-rule="evenodd" clip-rule="evenodd" d="M361.196 103.738C355.937 100.888 349.961 99.4629 343.268 99.4629C336.574 99.4629 330.598 100.888 325.339 103.738C320.08 106.588 315.778 110.388 312.909 115.375C310.04 120.363 308.367 125.825 308.367 132C308.367 138.175 309.801 143.875 312.909 148.625C316.017 153.613 320.08 157.413 325.339 160.263C330.598 163.113 336.574 164.538 343.268 164.538C349.961 164.538 355.937 163.113 361.196 160.263C366.455 157.413 370.758 153.613 373.626 148.625C376.734 143.638 378.168 138.175 378.168 132C378.168 125.825 376.734 120.363 373.626 115.375C370.519 110.388 366.455 106.588 361.196 103.738ZM360.479 142.45C358.805 145.538 356.415 147.913 353.307 149.575C350.2 151.238 346.853 152.188 343.029 152.188C339.204 152.188 335.857 151.238 332.75 149.575C329.642 147.913 327.252 145.538 325.578 142.45C323.905 139.363 322.949 135.8 322.949 132C322.949 128.2 323.905 124.638 325.578 121.55C327.252 118.463 329.642 116.088 332.75 114.425C335.857 112.763 339.204 111.813 343.029 111.813C346.853 111.813 350.2 112.763 353.307 114.425C356.415 116.088 358.805 118.463 360.479 121.55C362.152 124.638 363.108 128.2 363.108 132C363.108 135.8 362.152 139.363 360.479 142.45Z" fill="black"/>
<path fill-rule="evenodd" clip-rule="evenodd" d="M436.495 104.451C431.236 101.838 425.021 100.413 418.088 100.413H389.164V163.351H418.088C425.021 163.351 431.236 162.163 436.495 159.551C441.754 156.938 446.056 153.138 448.925 148.388C451.794 143.638 453.467 138.176 453.467 131.763C453.467 125.351 452.033 119.888 448.925 115.138C446.056 110.388 441.993 106.826 436.495 104.213V104.451ZM432.67 146.251C428.845 149.813 423.825 151.476 417.371 151.476H403.985V112.526H417.371C423.825 112.526 428.845 114.188 432.67 117.751C436.495 121.313 438.407 126.063 438.407 132.001C438.407 137.938 436.495 142.688 432.67 146.251Z" fill="black"/>
<path fill-rule="evenodd" clip-rule="evenodd" d="M513.227 103.738C507.968 100.888 501.992 99.4629 495.299 99.4629C488.606 99.4629 482.629 100.888 477.371 103.738C472.112 106.588 467.809 110.388 464.94 115.375C462.072 120.363 460.398 125.825 460.398 132C460.398 138.175 461.833 143.875 464.94 148.625C468.048 153.613 472.112 157.413 477.371 160.263C482.629 163.113 488.606 164.538 495.299 164.538C501.992 164.538 507.968 163.113 513.227 160.263C518.486 157.413 522.789 153.613 525.657 148.625C528.765 143.638 530.199 138.175 530.199 132C530.199 125.825 528.765 120.363 525.657 115.375C522.55 110.388 518.486 106.588 513.227 103.738ZM512.749 142.45C511.076 145.538 508.685 147.913 505.578 149.575C502.47 151.238 499.124 152.188 495.299 152.188C491.474 152.188 488.127 151.238 485.02 149.575C481.912 147.913 479.522 145.538 477.849 142.45C476.175 139.363 475.219 135.8 475.219 132C475.219 128.2 476.175 124.638 477.849 121.55C479.522 118.463 481.912 116.088 485.02 114.425C488.127 112.763 491.474 111.813 495.299 111.813C499.124 111.813 502.47 112.763 505.578 114.425C508.685 116.088 511.076 118.463 512.749 121.55C514.422 124.638 515.379 128.2 515.379 132C515.379 135.8 514.422 139.363 512.749 142.45Z" fill="black"/>
<path fill-rule="evenodd" clip-rule="evenodd" d="M572.75 152.188C568.686 152.188 565.339 151.238 562.232 149.575C559.124 147.913 556.734 145.538 555.06 142.45C553.387 139.363 552.431 135.8 552.431 132C552.431 128.2 553.387 124.638 555.06 121.55C556.734 118.463 559.363 116.088 562.232 114.425C565.339 112.763 568.925 111.813 572.75 111.813C579.204 111.813 584.463 114.188 588.766 119.175L598.327 110.625C595.22 107.063 591.634 104.213 587.092 102.313C582.55 100.413 577.77 99.4629 572.032 99.4629C566.295 99.4629 559.602 100.888 554.343 103.738C549.084 106.588 545.02 110.388 541.913 115.375C539.044 120.363 537.371 125.825 537.371 132C537.371 138.175 538.805 143.875 541.913 148.863C545.02 153.85 549.084 157.65 554.343 160.5C559.602 163.35 565.578 164.538 572.032 164.538C578.487 164.538 582.55 163.588 587.092 161.688C591.634 159.788 595.459 156.938 598.327 153.375L588.766 144.825C584.463 149.813 579.204 152.188 572.75 152.188Z" fill="black"/>
<path fill-rule="evenodd" clip-rule="evenodd" d="M50.4373 108.013V94H28.4453V130.338C28.4453 136.275 33.4652 141.263 39.4413 141.263H76.4931V118.938H61.4334C55.4573 118.938 50.4373 113.95 50.4373 108.013Z" fill="black"/>
</g>
<defs>
<clipPath id="clip0_3191_1035">
<rect width="600" height="76" fill="white" transform="translate(0 94)"/>
</clipPath>
</defs>
</svg>
