<?xml version="1.0" encoding="UTF-8"?><svg id="b" xmlns="http://www.w3.org/2000/svg" viewBox="0 0 3582.09 644.03"><defs><style>.d{fill:#f4dbb5;}.e{fill:#333e4b;}</style></defs><g id="c"><path class="e" d="M1275.14,538.43h-350.88v-22.26l19.77-10.49c11.1-6.19,18.22-12.05,21.31-17.6,3.09-5.58,4.63-13.49,4.63-23.79V189.39c0-10.3-1.54-18.33-4.63-24.1s-10.21-11.53-21.31-17.29l-19.77-10.51v-22.23h348.43l6.17,110.59h-22.85l-19.77-27.19c-7.82-10.7-14.81-19.04-21-25.02-6.17-5.98-12.66-10.21-19.47-12.66-6.78-2.48-14.93-3.71-24.4-3.71h-96.98v145.79h68.58c11.1,0,19.44-1.75,25.02-5.24,5.55-3.5,11.01-10.4,16.37-20.7l10.49-20.39h22.23v147.02h-22.23l-9.88-25.33c-5.36-13.58-11.03-22.54-16.99-26.86-5.98-4.32-14.32-6.5-25.02-6.5h-68.58v114.3c0,14.41,2.58,24.19,7.73,29.34,5.15,5.15,15.33,7.73,30.57,7.73h60.55c11.53,0,20.88-1.13,28.11-3.4,7.18-2.27,14.1-6.59,20.7-12.97,6.57-6.38,14.2-15.76,22.85-28.11l22.87-33.36h22.23l-14.84,119.85Z"/><path class="e" d="M1731.07,538.43h-332.98v-22.26l19.77-10.49c11.1-6.19,18.22-12.05,21.31-17.6,3.09-5.58,4.63-13.49,4.63-23.79V189.39c0-10.3-1.54-18.33-4.63-24.1-3.09-5.76-10.21-11.53-21.31-17.29l-19.77-10.51v-22.23h196.44v22.23l-19.75,10.51c-11.13,5.76-18.33,11.53-21.64,17.29-3.28,5.76-4.94,13.8-4.94,24.1v269.97c0,14.41,2.58,24.19,7.73,29.34,5.15,5.15,15.33,7.73,30.57,7.73h36.45c11.13,0,19.96-1.25,26.58-3.71,6.57-2.48,13.68-8.03,21.31-16.68,7.61-8.65,18-22.26,31.19-40.78l22.87-33.36h22.23l-16.07,136.53Z"/><path class="e" d="M2046.32,538.43h-202.63v-22.26l19.77-10.49c10.7-5.76,17.7-11.43,21-16.99,3.28-5.58,4.94-13.7,4.94-24.4V189.39c0-10.7-1.65-18.95-4.94-24.71-3.31-5.76-10.3-11.32-21-16.68l-19.77-10.51v-22.23h342.24l6.19,119.24h-22.87l-19.75-27.81c-10.3-14.84-18.64-25.73-25.02-32.74-6.4-6.99-12.47-11.53-18.24-13.58-5.76-2.06-12.97-3.09-21.62-3.09h-90.82v154.44h61.17c11.13,0,19.47-1.75,25.02-5.24,5.55-3.5,11.01-10.4,16.37-20.7l11.1-20.39h21.64v147.02h-21.64l-10.49-25.33c-5.36-13.16-11.03-22.02-16.99-26.55-5.98-4.54-14.32-6.8-25.02-6.8h-61.17v110.59c0,9.07,2.27,16.47,6.8,22.23,4.51,5.79,13.16,12.17,25.94,19.16l19.77,10.49v22.26Z"/><path class="e" d="M2473.19,538.43h-178.54v-14.22l25.94-9.88c10.3-3.71,16.99-7.61,20.08-11.74,3.09-4.11,4.63-10.28,4.63-18.52V169.61c0-8.25-1.54-14.53-4.63-18.85s-9.78-8.13-20.08-11.41l-25.94-9.9v-14.2h171.73c47.37,0,83.61,8.95,108.75,26.86,25.11,17.93,37.68,44.18,37.68,78.77,0,15.66-3.31,29.86-9.9,42.64-6.59,12.76-15.97,23.77-28.09,33.05-12.17,9.26-26.48,16.16-42.95,20.7,30.48,5.34,54.57,17.51,72.29,36.43,17.7,18.95,26.55,42.22,26.55,69.81,0,36.24-13.8,64.47-41.39,84.63-27.59,20.2-66.32,30.29-116.14,30.29ZM2392.88,142.42v164.34h60.53c32.53,0,58.9-7.91,79.07-23.79,20.18-15.85,30.29-36.34,30.29-61.47s-9.69-45.08-29.04-58.69c-19.37-13.58-47.18-20.39-83.4-20.39h-57.46ZM2392.88,333.31v177.92h73.5c35.84,0,63.95-7.82,84.34-23.46,20.39-15.66,30.57-37.49,30.57-65.49s-10.18-49.83-30.57-65.49c-20.39-15.64-49.12-23.48-86.19-23.48h-71.66Z"/><path class="e" d="M2822.84,538.43h-129.73v-14.22l23.48-9.26c9.45-3.71,15.95-7.3,19.44-10.82,3.5-3.47,6.9-9.36,10.21-17.6l140.24-366.95,35.82-10.51,145.79,378.08c2.48,6.19,4.73,10.73,6.8,13.61,2.06,2.88,4.84,5.34,8.34,7.39,3.5,2.08,8.34,4.54,14.51,7.42l22.26,8.65v14.22h-146.41v-14.22l20.37-7.39c11.95-4.54,19.25-8.13,21.95-10.82,2.67-2.67,4.02-5.24,4.02-7.73,0-2.06-.31-4.11-.95-6.17-.61-2.06-1.54-4.75-2.76-8.03l-28.42-74.75h-181.63l-27.17,74.14c-1.25,3.28-2.27,6.07-3.09,8.34s-1.23,4.21-1.23,5.86c0,2.88,1.42,5.67,4.32,8.34,2.86,2.69,10.28,6.07,22.23,10.18l21.62,8.03v14.22ZM2895.75,170.23l-79.07,211.28h159.99l-80.92-211.28Z"/><path class="e" d="M3375.74,544.59c-31.3,0-58.38-4.32-81.22-12.97-22.87-8.65-40.47-21.22-52.83-37.68-7.42-9.47-13.18-19.87-17.29-31.19-4.13-11.34-7.11-24.71-8.95-40.16-1.87-15.45-2.79-34.49-2.79-57.15v-195.22c0-8.65-1.54-15.24-4.63-19.77-3.09-4.51-9.78-8.43-20.08-11.72l-25.94-9.28v-14.2h148.89v14.2l-27.19,9.28c-9.07,3.28-15.24,7.21-18.52,11.72-3.31,4.54-4.96,11.13-4.96,19.77v207.57c0,46.54,9.9,81.15,29.67,103.79,19.75,22.66,50.04,33.97,90.79,33.97s72.6-11.62,91.76-34.89c19.14-23.27,28.7-60.03,28.7-110.28v-200.15c0-8.65-1.54-15.24-4.63-19.77-3.07-4.51-9.36-8.43-18.83-11.72l-25.94-9.28v-14.2h130.34v14.2l-26.55,9.28c-9.07,3.69-15.26,7.61-18.55,11.72-3.31,4.13-4.94,10.73-4.94,19.77v200.77c0,27.19-2.69,50.98-8.03,71.37-5.36,20.39-13.4,37.99-24.1,52.8-10.7,14.44-27.48,26.27-50.35,35.53-22.85,9.26-47.46,13.89-73.83,13.89Z"/><path class="e" d="M0,0v644.03h644.03V0H0Z"/><path class="d" d="M304.03,493.37h-165.57v-21.88l2.34-.05c10.91-.28,19.75-1.2,26.25-2.72,6.24-1.46,11.03-3.85,14.25-7.04,3.19-3.21,5.41-7.82,6.59-13.75,1.25-6.19,1.89-14.29,1.89-24.1v-155.19c0-16.49-.07-30.17-.21-41.01-.19-13.04-1.09-18.43-1.82-20.65-1.49-5.46-5.69-8.65-12.88-9.9-7.91-1.42-20.06-2.13-36.12-2.13h-2.41v-21.85l2.32-.07c7.63-.28,16.56-.92,26.58-1.91,9.8-.97,19.99-2.22,31.09-3.83,10.32-1.51,20.86-3.31,31.33-5.34,10.21-1.98,19.16-4.28,26.63-6.76l3.17-1.06v266.71c0,10.96.5,19.82,1.46,26.37.92,6.21,2.91,11.13,5.88,14.62,2.93,3.45,7.11,5.79,12.8,7.11,5.93,1.37,14.03,2.22,24.1,2.5l2.34.05v21.88Z"/><path class="d" d="M520.34,493.37h-165.57v-21.88l2.34-.05c10.91-.28,19.75-1.2,26.25-2.72,6.24-1.46,11.03-3.85,14.25-7.04,3.19-3.21,5.41-7.82,6.59-13.75,1.25-6.19,1.89-14.29,1.89-24.1v-155.19c0-16.49-.07-30.17-.21-41.01-.19-13.04-1.09-18.43-1.82-20.65-1.49-5.46-5.69-8.65-12.88-9.9-7.91-1.42-20.06-2.13-36.12-2.13h-2.41v-21.85l2.32-.07c7.63-.28,16.56-.92,26.58-1.91,9.8-.97,19.99-2.22,31.09-3.83,10.32-1.51,20.86-3.31,31.33-5.34,10.21-1.98,19.16-4.28,26.63-6.76l3.17-1.06v266.71c0,10.96.5,19.82,1.46,26.37.92,6.21,2.91,11.13,5.88,14.62,2.93,3.45,7.11,5.79,12.8,7.11,5.93,1.37,14.03,2.22,24.1,2.5l2.34.05v21.88Z"/></g></svg>