<?xml version="1.0" encoding="UTF-8"?>
<svg id="Ebene_2" data-name="Ebene 2" xmlns="http://www.w3.org/2000/svg" viewBox="0 0 57.9 57.86">
  <g id="Layer_1" data-name="Layer 1">
    <path d="M13.67,27.06c-2.44,0-4.86.03-7.3-.02-3.43-.07-6.27-2.86-6.32-6.29-.07-4.83-.07-9.65,0-14.48C.1,2.89,2.91.08,6.29.05c4.86-.07,9.73-.07,14.59.02,3.28.05,6.05,2.77,6.12,6.07.1,4.59.05,9.18.05,13.77,0,5.41,3.23,9.48,8.47,10.63.67.15,1.38.15,2.07.17,4.47.02,8.96-.02,13.43.02,3.3.02,5.87,1.9,6.66,4.88.18.69.2,1.45.2,2.17.02,4.32.02,8.64.02,12.96s-2.74,7.09-7.06,7.11c-4.25.02-8.49,0-12.74,0-4.47,0-7.25-2.76-7.26-7.2-.02-4.35,0-8.73,0-13.08-.02-5.92-4.54-10.46-10.49-10.49-2.21-.02-4.45,0-6.68-.02h0Z"/>
  </g>
</svg>